<svg id="visual" viewBox="0 0 960 250" width="960" height="250" xmlns="http://www.w3.org/2000/svg" xmlns:xlink="http://www.w3.org/1999/xlink" version="1.1"><rect x="0" y="0" width="960" height="250" fill="#0057AD"></rect><path d="M0 210L32 194.2C64 178.3 128 146.7 192 133C256 119.3 320 123.7 384 131.7C448 139.7 512 151.3 576 149.5C640 147.7 704 132.3 768 130.8C832 129.3 896 141.7 928 147.8L960 154L960 0L928 0C896 0 832 0 768 0C704 0 640 0 576 0C512 0 448 0 384 0C320 0 256 0 192 0C128 0 64 0 32 0L0 0Z" fill="#0057ad"></path><path d="M0 120L32 121C64 122 128 124 192 127C256 130 320 134 384 144.5C448 155 512 172 576 174.7C640 177.3 704 165.7 768 156.5C832 147.3 896 140.7 928 137.3L960 134L960 0L928 0C896 0 832 0 768 0C704 0 640 0 576 0C512 0 448 0 384 0C320 0 256 0 192 0C128 0 64 0 32 0L0 0Z" fill="#0e509d"></path><path d="M0 182L32 178.3C64 174.7 128 167.3 192 166.7C256 166 320 172 384 174C448 176 512 174 576 173.3C640 172.7 704 173.3 768 172.5C832 171.7 896 169.3 928 168.2L960 167L960 0L928 0C896 0 832 0 768 0C704 0 640 0 576 0C512 0 448 0 384 0C320 0 256 0 192 0C128 0 64 0 32 0L0 0Z" fill="#15488e"></path><path d="M0 148L32 142.2C64 136.3 128 124.7 192 117.8C256 111 320 109 384 117.3C448 125.7 512 144.3 576 140.2C640 136 704 109 768 110.3C832 111.7 896 141.3 928 156.2L960 171L960 0L928 0C896 0 832 0 768 0C704 0 640 0 576 0C512 0 448 0 384 0C320 0 256 0 192 0C128 0 64 0 32 0L0 0Z" fill="#19417f"></path><path d="M0 89L32 96.7C64 104.3 128 119.7 192 123C256 126.3 320 117.7 384 111.2C448 104.7 512 100.3 576 107.5C640 114.7 704 133.3 768 141C832 148.7 896 145.3 928 143.7L960 142L960 0L928 0C896 0 832 0 768 0C704 0 640 0 576 0C512 0 448 0 384 0C320 0 256 0 192 0C128 0 64 0 32 0L0 0Z" fill="#1b3a70"></path><path d="M0 82L32 86.7C64 91.3 128 100.7 192 103.2C256 105.7 320 101.3 384 96.8C448 92.3 512 87.7 576 90.7C640 93.7 704 104.3 768 110.3C832 116.3 896 117.7 928 118.3L960 119L960 0L928 0C896 0 832 0 768 0C704 0 640 0 576 0C512 0 448 0 384 0C320 0 256 0 192 0C128 0 64 0 32 0L0 0Z" fill="#1b3361"></path><path d="M0 115L32 106.3C64 97.7 128 80.3 192 78.7C256 77 320 91 384 97.3C448 103.7 512 102.3 576 93.8C640 85.3 704 69.7 768 65.5C832 61.3 896 68.7 928 72.3L960 76L960 0L928 0C896 0 832 0 768 0C704 0 640 0 576 0C512 0 448 0 384 0C320 0 256 0 192 0C128 0 64 0 32 0L0 0Z" fill="#1b2d53"></path><path d="M0 88L32 87C64 86 128 84 192 80.3C256 76.7 320 71.3 384 68.3C448 65.3 512 64.7 576 64.7C640 64.7 704 65.3 768 66.5C832 67.7 896 69.3 928 70.2L960 71L960 0L928 0C896 0 832 0 768 0C704 0 640 0 576 0C512 0 448 0 384 0C320 0 256 0 192 0C128 0 64 0 32 0L0 0Z" fill="#192645"></path><path d="M0 54L32 58.7C64 63.3 128 72.7 192 71.8C256 71 320 60 384 52.7C448 45.3 512 41.7 576 41.8C640 42 704 46 768 53.5C832 61 896 72 928 77.5L960 83L960 0L928 0C896 0 832 0 768 0C704 0 640 0 576 0C512 0 448 0 384 0C320 0 256 0 192 0C128 0 64 0 32 0L0 0Z" fill="#172038"></path><path d="M0 40L32 38.7C64 37.3 128 34.7 192 36.2C256 37.7 320 43.3 384 44C448 44.7 512 40.3 576 39.3C640 38.3 704 40.7 768 41C832 41.3 896 39.7 928 38.8L960 38L960 0L928 0C896 0 832 0 768 0C704 0 640 0 576 0C512 0 448 0 384 0C320 0 256 0 192 0C128 0 64 0 32 0L0 0Z" fill="#151a2b"></path><path d="M0 18L32 19.5C64 21 128 24 192 26.5C256 29 320 31 384 31.3C448 31.7 512 30.3 576 27.7C640 25 704 21 768 18.8C832 16.7 896 16.3 928 16.2L960 16L960 0L928 0C896 0 832 0 768 0C704 0 640 0 576 0C512 0 448 0 384 0C320 0 256 0 192 0C128 0 64 0 32 0L0 0Z" fill="#11131f"></path><path d="M0 16L32 17C64 18 128 20 192 18.3C256 16.7 320 11.3 384 11.8C448 12.3 512 18.7 576 20.7C640 22.7 704 20.3 768 17.2C832 14 896 10 928 8L960 6L960 0L928 0C896 0 832 0 768 0C704 0 640 0 576 0C512 0 448 0 384 0C320 0 256 0 192 0C128 0 64 0 32 0L0 0Z" fill="#0a0b13"></path></svg>