<svg id="visual" viewBox="0 0 960 250" width="960" height="250" xmlns="http://www.w3.org/2000/svg" xmlns:xlink="http://www.w3.org/1999/xlink" version="1.1"><rect x="0" y="0" width="960" height="250" fill="#0057AD"></rect><path d="M0 166L32 164.7C64 163.3 128 160.7 192 161.8C256 163 320 168 384 171C448 174 512 175 576 182.5C640 190 704 204 768 193.5C832 183 896 148 928 130.5L960 113L960 0L928 0C896 0 832 0 768 0C704 0 640 0 576 0C512 0 448 0 384 0C320 0 256 0 192 0C128 0 64 0 32 0L0 0Z" fill="#0057ad"></path><path d="M0 109L32 120.5C64 132 128 155 192 154.5C256 154 320 130 384 119C448 108 512 110 576 112.7C640 115.3 704 118.7 768 121.5C832 124.3 896 126.7 928 127.8L960 129L960 0L928 0C896 0 832 0 768 0C704 0 640 0 576 0C512 0 448 0 384 0C320 0 256 0 192 0C128 0 64 0 32 0L0 0Z" fill="#414a98"></path><path d="M0 107L32 107.8C64 108.7 128 110.3 192 111C256 111.7 320 111.3 384 117.2C448 123 512 135 576 132.5C640 130 704 113 768 105C832 97 896 98 928 98.5L960 99L960 0L928 0C896 0 832 0 768 0C704 0 640 0 576 0C512 0 448 0 384 0C320 0 256 0 192 0C128 0 64 0 32 0L0 0Z" fill="#543d82"></path><path d="M0 138L32 136.5C64 135 128 132 192 131.5C256 131 320 133 384 132C448 131 512 127 576 126.8C640 126.7 704 130.3 768 137.3C832 144.3 896 154.7 928 159.8L960 165L960 0L928 0C896 0 832 0 768 0C704 0 640 0 576 0C512 0 448 0 384 0C320 0 256 0 192 0C128 0 64 0 32 0L0 0Z" fill="#5b326c"></path><path d="M0 125L32 124.5C64 124 128 123 192 127.2C256 131.3 320 140.7 384 144C448 147.3 512 144.7 576 136.2C640 127.7 704 113.3 768 111.5C832 109.7 896 120.3 928 125.7L960 131L960 0L928 0C896 0 832 0 768 0C704 0 640 0 576 0C512 0 448 0 384 0C320 0 256 0 192 0C128 0 64 0 32 0L0 0Z" fill="#5c2957"></path><path d="M0 71L32 74.2C64 77.3 128 83.7 192 86.8C256 90 320 90 384 93.2C448 96.3 512 102.7 576 106.3C640 110 704 111 768 114.5C832 118 896 124 928 127L960 130L960 0L928 0C896 0 832 0 768 0C704 0 640 0 576 0C512 0 448 0 384 0C320 0 256 0 192 0C128 0 64 0 32 0L0 0Z" fill="#572244"></path><path d="M0 83L32 82.7C64 82.3 128 81.7 192 77.7C256 73.7 320 66.3 384 69.3C448 72.3 512 85.7 576 87.8C640 90 704 81 768 76.5C832 72 896 72 928 72L960 72L960 0L928 0C896 0 832 0 768 0C704 0 640 0 576 0C512 0 448 0 384 0C320 0 256 0 192 0C128 0 64 0 32 0L0 0Z" fill="#4e1e34"></path><path d="M0 98L32 97.8C64 97.7 128 97.3 192 94.3C256 91.3 320 85.7 384 81.3C448 77 512 74 576 75.3C640 76.7 704 82.3 768 79.7C832 77 896 66 928 60.5L960 55L960 0L928 0C896 0 832 0 768 0C704 0 640 0 576 0C512 0 448 0 384 0C320 0 256 0 192 0C128 0 64 0 32 0L0 0Z" fill="#441b27"></path><path d="M0 37L32 44.8C64 52.7 128 68.3 192 69C256 69.7 320 55.3 384 55C448 54.7 512 68.3 576 74.2C640 80 704 78 768 71.2C832 64.3 896 52.7 928 46.8L960 41L960 0L928 0C896 0 832 0 768 0C704 0 640 0 576 0C512 0 448 0 384 0C320 0 256 0 192 0C128 0 64 0 32 0L0 0Z" fill="#38191c"></path><path d="M0 59L32 55.7C64 52.3 128 45.7 192 42.2C256 38.7 320 38.3 384 37.5C448 36.7 512 35.3 576 38.3C640 41.3 704 48.7 768 48C832 47.3 896 38.7 928 34.3L960 30L960 0L928 0C896 0 832 0 768 0C704 0 640 0 576 0C512 0 448 0 384 0C320 0 256 0 192 0C128 0 64 0 32 0L0 0Z" fill="#2b1615"></path><path d="M0 47L32 43.8C64 40.7 128 34.3 192 34.7C256 35 320 42 384 41.3C448 40.7 512 32.3 576 26.7C640 21 704 18 768 21.3C832 24.7 896 34.3 928 39.2L960 44L960 0L928 0C896 0 832 0 768 0C704 0 640 0 576 0C512 0 448 0 384 0C320 0 256 0 192 0C128 0 64 0 32 0L0 0Z" fill="#1f130f"></path><path d="M0 11L32 11.8C64 12.7 128 14.3 192 16.5C256 18.7 320 21.3 384 22.8C448 24.3 512 24.7 576 23.2C640 21.7 704 18.3 768 19.3C832 20.3 896 25.7 928 28.3L960 31L960 0L928 0C896 0 832 0 768 0C704 0 640 0 576 0C512 0 448 0 384 0C320 0 256 0 192 0C128 0 64 0 32 0L0 0Z" fill="#130d0a"></path></svg>