<svg id="visual" viewBox="0 0 900 150" width="900" height="150" xmlns="http://www.w3.org/2000/svg" xmlns:xlink="http://www.w3.org/1999/xlink" version="1.1"><path d="M0 24L39 24L39 19L78 19L78 15L117 15L117 9L157 9L157 19L196 19L196 9L235 9L235 9L274 9L274 12L313 12L313 18L352 18L352 13L391 13L391 12L430 12L430 24L470 24L470 9L509 9L509 10L548 10L548 9L587 9L587 19L626 19L626 15L665 15L665 12L704 12L704 16L743 16L743 22L783 22L783 24L822 24L822 10L861 10L861 15L900 15L900 12L900 0L900 0L861 0L861 0L822 0L822 0L783 0L783 0L743 0L743 0L704 0L704 0L665 0L665 0L626 0L626 0L587 0L587 0L548 0L548 0L509 0L509 0L470 0L470 0L430 0L430 0L391 0L391 0L352 0L352 0L313 0L313 0L274 0L274 0L235 0L235 0L196 0L196 0L157 0L157 0L117 0L117 0L78 0L78 0L39 0L39 0L0 0Z" fill="#0057af"></path><path d="M0 57L39 57L39 45L78 45L78 33L117 33L117 55L157 55L157 55L196 55L196 54L235 54L235 34L274 34L274 60L313 60L313 39L352 39L352 46L391 46L391 54L430 54L430 69L470 69L470 48L509 48L509 55L548 55L548 54L587 54L587 42L626 42L626 49L665 49L665 62L704 62L704 57L743 57L743 42L783 42L783 62L822 62L822 51L861 51L861 52L900 52L900 34L900 10L900 13L861 13L861 8L822 8L822 22L783 22L783 20L743 20L743 14L704 14L704 10L665 10L665 13L626 13L626 17L587 17L587 7L548 7L548 8L509 8L509 7L470 7L470 22L430 22L430 10L391 10L391 11L352 11L352 16L313 16L313 10L274 10L274 7L235 7L235 7L196 7L196 17L157 17L157 7L117 7L117 13L78 13L78 17L39 17L39 22L0 22Z" fill="#0150a2"></path><path d="M0 70L39 70L39 67L78 67L78 57L117 57L117 75L157 75L157 72L196 72L196 78L235 78L235 49L274 49L274 78L313 78L313 55L352 55L352 67L391 67L391 78L430 78L430 86L470 86L470 66L509 66L509 67L548 67L548 72L587 72L587 60L626 60L626 67L665 67L665 78L704 78L704 73L743 73L743 70L783 70L783 90L822 90L822 79L861 79L861 73L900 73L900 60L900 32L900 50L861 50L861 49L822 49L822 60L783 60L783 40L743 40L743 55L704 55L704 60L665 60L665 47L626 47L626 40L587 40L587 52L548 52L548 53L509 53L509 46L470 46L470 67L430 67L430 52L391 52L391 44L352 44L352 37L313 37L313 58L274 58L274 32L235 32L235 52L196 52L196 53L157 53L157 53L117 53L117 31L78 31L78 43L39 43L39 55L0 55Z" fill="#024894"></path><path d="M0 75L39 75L39 70L78 70L78 64L117 64L117 78L157 78L157 79L196 79L196 85L235 85L235 52L274 52L274 85L313 85L313 64L352 64L352 76L391 76L391 82L430 82L430 93L470 93L470 76L509 76L509 76L548 76L548 82L587 82L587 70L626 70L626 72L665 72L665 88L704 88L704 79L743 79L743 73L783 73L783 93L822 93L822 84L861 84L861 81L900 81L900 70L900 58L900 71L861 71L861 77L822 77L822 88L783 88L783 68L743 68L743 71L704 71L704 76L665 76L665 65L626 65L626 58L587 58L587 70L548 70L548 65L509 65L509 64L470 64L470 84L430 84L430 76L391 76L391 65L352 65L352 53L313 53L313 76L274 76L274 47L235 47L235 76L196 76L196 70L157 70L157 73L117 73L117 55L78 55L78 65L39 65L39 68L0 68Z" fill="#024187"></path><path d="M0 84L39 84L39 84L78 84L78 73L117 73L117 86L157 86L157 86L196 86L196 96L235 96L235 57L274 57L274 96L313 96L313 73L352 73L352 84L391 84L391 90L430 90L430 106L470 106L470 85L509 85L509 84L548 84L548 91L587 91L587 82L626 82L626 78L665 78L665 99L704 99L704 84L743 84L743 79L783 79L783 99L822 99L822 88L861 88L861 88L900 88L900 75L900 68L900 79L861 79L861 82L822 82L822 91L783 91L783 71L743 71L743 77L704 77L704 86L665 86L665 70L626 70L626 68L587 68L587 80L548 80L548 74L509 74L509 74L470 74L470 91L430 91L430 80L391 80L391 74L352 74L352 62L313 62L313 83L274 83L274 50L235 50L235 83L196 83L196 77L157 77L157 76L117 76L117 62L78 62L78 68L39 68L39 73L0 73Z" fill="#023a7a"></path><path d="M0 91L39 91L39 91L78 91L78 82L117 82L117 97L157 97L157 102L196 102L196 108L235 108L235 72L274 72L274 102L313 102L313 84L352 84L352 97L391 97L391 102L430 102L430 112L470 112L470 100L509 100L509 102L548 102L548 103L587 103L587 99L626 99L626 93L665 93L665 106L704 106L704 103L743 103L743 88L783 88L783 104L822 104L822 100L861 100L861 102L900 102L900 81L900 73L900 86L861 86L861 86L822 86L822 97L783 97L783 77L743 77L743 82L704 82L704 97L665 97L665 76L626 76L626 80L587 80L587 89L548 89L548 82L509 82L509 83L470 83L470 104L430 104L430 88L391 88L391 82L352 82L352 71L313 71L313 94L274 94L274 55L235 55L235 94L196 94L196 84L157 84L157 84L117 84L117 71L78 71L78 82L39 82L39 82L0 82Z" fill="#02346e"></path><path d="M0 100L39 100L39 102L78 102L78 94L117 94L117 112L157 112L157 106L196 106L196 112L235 112L235 84L274 84L274 117L313 117L313 91L352 91L352 109L391 109L391 115L430 115L430 121L470 121L470 112L509 112L509 112L548 112L548 114L587 114L587 109L626 109L626 103L665 103L665 117L704 117L704 112L743 112L743 94L783 94L783 120L822 120L822 112L861 112L861 109L900 109L900 90L900 79L900 100L861 100L861 98L822 98L822 102L783 102L783 86L743 86L743 101L704 101L704 104L665 104L665 91L626 91L626 97L587 97L587 101L548 101L548 100L509 100L509 98L470 98L470 110L430 110L430 100L391 100L391 95L352 95L352 82L313 82L313 100L274 100L274 70L235 70L235 106L196 106L196 100L157 100L157 95L117 95L117 80L78 80L78 89L39 89L39 89L0 89Z" fill="#012d62"></path><path d="M0 135L39 135L39 132L78 132L78 139L117 139L117 129L157 129L157 132L196 132L196 138L235 138L235 132L274 132L274 141L313 141L313 136L352 136L352 130L391 130L391 133L430 133L430 141L470 141L470 130L509 130L509 136L548 136L548 130L587 130L587 138L626 138L626 129L665 129L665 136L704 136L704 133L743 133L743 130L783 130L783 132L822 132L822 133L861 133L861 138L900 138L900 138L900 88L900 107L861 107L861 110L822 110L822 118L783 118L783 92L743 92L743 110L704 110L704 115L665 115L665 101L626 101L626 107L587 107L587 112L548 112L548 110L509 110L509 110L470 110L470 119L430 119L430 113L391 113L391 107L352 107L352 89L313 89L313 115L274 115L274 82L235 82L235 110L196 110L196 104L157 104L157 110L117 110L117 92L78 92L78 100L39 100L39 98L0 98Z" fill="#012656"></path><path d="M0 147L39 147L39 139L78 139L78 145L117 145L117 139L157 139L157 141L196 141L196 144L235 144L235 144L274 144L274 145L313 145L313 145L352 145L352 141L391 141L391 141L430 141L430 145L470 145L470 141L509 141L509 141L548 141L548 141L587 141L587 145L626 145L626 141L665 141L665 145L704 145L704 139L743 139L743 141L783 141L783 138L822 138L822 144L861 144L861 145L900 145L900 142L900 136L900 136L861 136L861 131L822 131L822 130L783 130L783 128L743 128L743 131L704 131L704 134L665 134L665 127L626 127L626 136L587 136L587 128L548 128L548 134L509 134L509 128L470 128L470 139L430 139L430 131L391 131L391 128L352 128L352 134L313 134L313 139L274 139L274 130L235 130L235 136L196 136L196 130L157 130L157 127L117 127L117 137L78 137L78 130L39 130L39 133L0 133Z" fill="#00204a"></path><path d="M0 151L39 151L39 151L78 151L78 151L117 151L117 151L157 151L157 151L196 151L196 151L235 151L235 151L274 151L274 151L313 151L313 151L352 151L352 151L391 151L391 151L430 151L430 151L470 151L470 151L509 151L509 151L548 151L548 151L587 151L587 151L626 151L626 151L665 151L665 151L704 151L704 151L743 151L743 151L783 151L783 151L822 151L822 151L861 151L861 151L900 151L900 151L900 140L900 143L861 143L861 142L822 142L822 136L783 136L783 139L743 139L743 137L704 137L704 143L665 143L665 139L626 139L626 143L587 143L587 139L548 139L548 139L509 139L509 139L470 139L470 143L430 143L430 139L391 139L391 139L352 139L352 143L313 143L313 143L274 143L274 142L235 142L235 142L196 142L196 139L157 139L157 137L117 137L117 143L78 143L78 137L39 137L39 145L0 145Z" fill="#001a3f"></path></svg>