<svg id="visual" viewBox="0 0 900 150" width="900" height="150" xmlns="http://www.w3.org/2000/svg" xmlns:xlink="http://www.w3.org/1999/xlink" version="1.1"><path d="M0 12L39 12L39 15L78 15L78 12L117 12L117 13L157 13L157 13L196 13L196 15L235 15L235 13L274 13L274 10L313 10L313 13L352 13L352 9L391 9L391 9L430 9L430 12L470 12L470 9L509 9L509 9L548 9L548 10L587 10L587 15L626 15L626 10L665 10L665 9L704 9L704 9L743 9L743 13L783 13L783 9L822 9L822 9L861 9L861 9L900 9L900 10L900 0L900 0L861 0L861 0L822 0L822 0L783 0L783 0L743 0L743 0L704 0L704 0L665 0L665 0L626 0L626 0L587 0L587 0L548 0L548 0L509 0L509 0L470 0L470 0L430 0L430 0L391 0L391 0L352 0L352 0L313 0L313 0L274 0L274 0L235 0L235 0L196 0L196 0L157 0L157 0L117 0L117 0L78 0L78 0L39 0L39 0L0 0Z" fill="#001a3f"></path><path d="M0 52L39 52L39 52L78 52L78 48L117 48L117 45L157 45L157 60L196 60L196 57L235 57L235 69L274 69L274 45L313 45L313 57L352 57L352 54L391 54L391 37L430 37L430 61L470 61L470 55L509 55L509 46L548 46L548 54L587 54L587 61L626 61L626 46L665 46L665 42L704 42L704 42L743 42L743 55L783 55L783 51L822 51L822 45L861 45L861 45L900 45L900 43L900 8L900 7L861 7L861 7L822 7L822 7L783 7L783 11L743 11L743 7L704 7L704 7L665 7L665 8L626 8L626 13L587 13L587 8L548 8L548 7L509 7L509 7L470 7L470 10L430 10L430 7L391 7L391 7L352 7L352 11L313 11L313 8L274 8L274 11L235 11L235 13L196 13L196 11L157 11L157 11L117 11L117 10L78 10L78 13L39 13L39 10L0 10Z" fill="#00173b"></path><path d="M0 66L39 66L39 62L78 62L78 60L117 60L117 57L157 57L157 72L196 72L196 67L235 67L235 81L274 81L274 60L313 60L313 75L352 75L352 67L391 67L391 48L430 48L430 79L470 79L470 70L509 70L509 61L548 61L548 69L587 69L587 72L626 72L626 57L665 57L665 52L704 52L704 55L743 55L743 72L783 72L783 62L822 62L822 61L861 61L861 55L900 55L900 62L900 41L900 43L861 43L861 43L822 43L822 49L783 49L783 53L743 53L743 40L704 40L704 40L665 40L665 44L626 44L626 59L587 59L587 52L548 52L548 44L509 44L509 53L470 53L470 59L430 59L430 35L391 35L391 52L352 52L352 55L313 55L313 43L274 43L274 67L235 67L235 55L196 55L196 58L157 58L157 43L117 43L117 46L78 46L78 50L39 50L39 50L0 50Z" fill="#001338"></path><path d="M0 100L39 100L39 103L78 103L78 90L117 90L117 99L157 99L157 104L196 104L196 90L235 90L235 111L274 111L274 90L313 90L313 102L352 102L352 104L391 104L391 88L430 88L430 108L470 108L470 102L509 102L509 91L548 91L548 106L587 106L587 97L626 97L626 96L665 96L665 96L704 96L704 97L743 97L743 97L783 97L783 104L822 104L822 94L861 94L861 97L900 97L900 103L900 60L900 53L861 53L861 59L822 59L822 60L783 60L783 70L743 70L743 53L704 53L704 50L665 50L665 55L626 55L626 70L587 70L587 67L548 67L548 59L509 59L509 68L470 68L470 77L430 77L430 46L391 46L391 65L352 65L352 73L313 73L313 58L274 58L274 79L235 79L235 65L196 65L196 70L157 70L157 55L117 55L117 58L78 58L78 60L39 60L39 64L0 64Z" fill="#000f34"></path><path d="M0 114L39 114L39 118L78 118L78 104L117 104L117 114L157 114L157 117L196 117L196 103L235 103L235 120L274 120L274 104L313 104L313 111L352 111L352 117L391 117L391 104L430 104L430 118L470 118L470 112L509 112L509 104L548 104L548 115L587 115L587 106L626 106L626 106L665 106L665 111L704 111L704 111L743 111L743 108L783 108L783 120L822 120L822 108L861 108L861 112L900 112L900 112L900 101L900 95L861 95L861 92L822 92L822 102L783 102L783 95L743 95L743 95L704 95L704 94L665 94L665 94L626 94L626 95L587 95L587 104L548 104L548 89L509 89L509 100L470 100L470 106L430 106L430 86L391 86L391 102L352 102L352 100L313 100L313 88L274 88L274 109L235 109L235 88L196 88L196 102L157 102L157 97L117 97L117 88L78 88L78 101L39 101L39 98L0 98Z" fill="#000930"></path><path d="M0 127L39 127L39 132L78 132L78 127L117 127L117 136L157 136L157 132L196 132L196 123L235 123L235 135L274 135L274 124L313 124L313 127L352 127L352 132L391 132L391 123L430 123L430 130L470 130L470 132L509 132L509 121L548 121L548 132L587 132L587 120L626 120L626 129L665 129L665 126L704 126L704 129L743 129L743 126L783 126L783 135L822 135L822 126L861 126L861 135L900 135L900 132L900 110L900 110L861 110L861 106L822 106L822 118L783 118L783 106L743 106L743 109L704 109L704 109L665 109L665 104L626 104L626 104L587 104L587 113L548 113L548 102L509 102L509 110L470 110L470 116L430 116L430 102L391 102L391 115L352 115L352 109L313 109L313 102L274 102L274 118L235 118L235 101L196 101L196 115L157 115L157 112L117 112L117 102L78 102L78 116L39 116L39 112L0 112Z" fill="#00022c"></path><path d="M0 151L39 151L39 151L78 151L78 151L117 151L117 151L157 151L157 151L196 151L196 151L235 151L235 151L274 151L274 151L313 151L313 151L352 151L352 151L391 151L391 151L430 151L430 151L470 151L470 151L509 151L509 151L548 151L548 151L587 151L587 151L626 151L626 151L665 151L665 151L704 151L704 151L743 151L743 151L783 151L783 151L822 151L822 151L861 151L861 151L900 151L900 151L900 130L900 133L861 133L861 124L822 124L822 133L783 133L783 124L743 124L743 127L704 127L704 124L665 124L665 127L626 127L626 118L587 118L587 130L548 130L548 119L509 119L509 130L470 130L470 128L430 128L430 121L391 121L391 130L352 130L352 125L313 125L313 122L274 122L274 133L235 133L235 121L196 121L196 130L157 130L157 134L117 134L117 125L78 125L78 130L39 130L39 125L0 125Z" fill="#000000"></path></svg>